<svg width="64" height="64" viewBox="0 0 64 64" fill="none" xmlns="http://www.w3.org/2000/svg">
<rect width="64" height="64" rx="8" fill="#DBE2EF"/>
<path d="M44.2304 34.2784C42.6609 33.7828 40.9904 33.6991 39.3792 34.0352V17.824C39.3825 15.9917 38.8716 14.1953 37.9046 12.639C36.9376 11.0826 35.5534 9.82883 33.9092 9.0201C32.2651 8.21137 30.4271 7.88017 28.604 8.06414C26.781 8.24811 25.0462 8.93988 23.5968 10.0608C22.1473 8.94363 20.4138 8.25502 18.5928 8.07306C16.7718 7.89111 14.9363 8.2231 13.2944 9.03139C11.6525 9.83967 10.27 11.0919 9.30363 12.646C8.3373 14.2001 7.82582 15.994 7.82721 17.824C7.82721 18.8424 8.23178 19.8192 8.95192 20.5393C9.67206 21.2594 10.6488 21.664 11.6672 21.664C12.6856 21.664 13.6624 21.2594 14.3825 20.5393C15.1026 19.8192 15.5072 18.8424 15.5072 17.824C15.5072 17.2596 15.7314 16.7184 16.1305 16.3193C16.5296 15.9202 17.0708 15.696 17.6352 15.696C18.1996 15.696 18.7409 15.9202 19.1399 16.3193C19.539 16.7184 19.7632 17.2596 19.7632 17.824V34.464C19.7632 35.4824 20.1678 36.4592 20.8879 37.1793C21.6081 37.8994 22.5848 38.304 23.6032 38.304C24.6216 38.304 25.5984 37.8994 26.3185 37.1793C27.0386 36.4592 27.4432 35.4824 27.4432 34.464V17.824C27.4432 17.2596 27.6674 16.7184 28.0665 16.3193C28.4656 15.9202 29.0068 15.696 29.5712 15.696C30.1356 15.696 30.6769 15.9202 31.0759 16.3193C31.475 16.7184 31.6992 17.2596 31.6992 17.824V38.5152L22.816 44.9152C22.3897 45.2024 22.0253 45.5723 21.7446 46.003C21.4639 46.4336 21.2725 46.9163 21.1817 47.4223C21.091 47.9283 21.1028 48.4474 21.2164 48.9487C21.3301 49.4501 21.5432 49.9235 21.8432 50.341C22.1432 50.7584 22.524 51.1114 22.963 51.3789C23.402 51.6465 23.8902 51.8232 24.3987 51.8985C24.9072 51.9738 25.4257 51.9463 25.9234 51.8175C26.4211 51.6887 26.8879 51.4613 27.296 51.1488L32.4928 47.4048C33.1471 48.8786 34.1602 50.1649 35.4395 51.1464C36.7189 52.1278 38.2238 52.7731 39.8167 53.0232C41.4097 53.2733 43.0399 53.1203 44.5585 52.5782C46.0771 52.0361 47.4357 51.1222 48.5102 49.9199C49.5846 48.7176 50.3407 47.2652 50.7094 45.6954C51.0781 44.1257 51.0476 42.4886 50.6207 40.9337C50.1938 39.3787 49.3841 37.9555 48.2656 36.7941C47.1471 35.6326 45.7554 34.7699 44.2176 34.2848L44.2304 34.2784ZM43.2 44.0832C43.0676 44.5142 42.7914 44.8867 42.4175 45.1387C42.0437 45.3907 41.5947 45.5069 41.1456 45.468C40.6964 45.4291 40.2741 45.2374 39.9492 44.9248C39.6243 44.6122 39.4163 44.1977 39.36 43.7504C39.36 43.6672 39.36 43.584 39.36 43.4944V43.1616C39.3728 43.0707 39.392 42.9809 39.4176 42.8928C39.5881 42.4086 39.9401 42.0097 40.3994 41.7803C40.8586 41.551 41.389 41.5092 41.8785 41.6638C42.368 41.8183 42.7782 42.1572 43.0224 42.6087C43.2666 43.0602 43.3257 43.5889 43.1872 44.0832H43.2Z" fill="#3F72AF"/>
</svg>
