<svg width="32" height="32" viewBox="0 0 32 32" fill="none" xmlns="http://www.w3.org/2000/svg">
<path d="M16 5.33337C9.33337 5.33337 3.64004 9.48004 1.33337 15.3334C3.64004 21.1867 9.33337 25.3334 16 25.3334C22.6667 25.3334 28.36 21.1867 30.6667 15.3334C28.36 9.48004 22.6667 5.33337 16 5.33337ZM16 22C12.32 22 9.33337 19.0134 9.33337 15.3334C9.33337 11.6534 12.32 8.66671 16 8.66671C19.68 8.66671 22.6667 11.6534 22.6667 15.3334C22.6667 19.0134 19.68 22 16 22ZM16 11.3334C13.7867 11.3334 12 13.12 12 15.3334C12 17.5467 13.7867 19.3334 16 19.3334C18.2134 19.3334 20 17.5467 20 15.3334C20 13.12 18.2134 11.3334 16 11.3334Z" fill="white"/>
</svg>
