<svg width="64" height="64" viewBox="0 0 64 64" fill="none" xmlns="http://www.w3.org/2000/svg">
<rect width="64" height="64" rx="8" fill="#DBE2EF"/>
<path d="M12.5968 49.9184L17.48 45.0352L22.3632 49.9184C23.0832 50.6375 24.0592 51.0415 25.0768 51.0415C26.0944 51.0415 27.0704 50.6375 27.7904 49.9184L32.6736 45.0352L37.5568 49.9184C38.2768 50.6375 39.2528 51.0415 40.2704 51.0415C41.288 51.0415 42.264 50.6375 42.984 49.9184L47.8672 45.0352L52.7504 49.9184C53.4729 50.6285 54.4467 51.0243 55.4598 51.0196C56.4728 51.0148 57.4429 50.61 58.1588 49.8933C58.8747 49.1765 59.2784 48.2059 59.2819 47.1929C59.2854 46.1799 58.8885 45.2065 58.1776 44.4848L50.5936 36.888C49.8736 36.1689 48.8976 35.765 47.88 35.765C46.8624 35.765 45.8864 36.1689 45.1664 36.888L40.2832 41.7712L35.3936 36.888C34.6736 36.1689 33.6976 35.765 32.68 35.765C31.6624 35.765 30.6864 36.1689 29.9664 36.888L25.0832 41.7712L20.2 36.888C19.48 36.1689 18.504 35.765 17.4864 35.765C16.4688 35.765 15.4928 36.1689 14.7728 36.888L7.16317 44.4848C6.45227 45.2065 6.05534 46.1799 6.05886 47.1929C6.06238 48.2059 6.46605 49.1765 7.18195 49.8933C7.89785 50.61 8.86796 51.0148 9.88098 51.0196C10.894 51.0243 11.8678 50.6285 12.5904 49.9184H12.5968Z" fill="#3F72AF"/>
<path d="M12.5968 30.0209L17.48 25.1377L22.3632 30.0209C23.0832 30.74 24.0592 31.1439 25.0768 31.1439C26.0944 31.1439 27.0704 30.74 27.7904 30.0209L32.6736 25.1377L37.5568 30.0209C38.2768 30.74 39.2528 31.1439 40.2704 31.1439C41.288 31.1439 42.264 30.74 42.984 30.0209L47.8672 25.1377L52.7504 30.0209C53.1064 30.3785 53.5293 30.6625 53.995 30.8567C54.4606 31.0508 54.96 31.1514 55.4646 31.1526C55.9691 31.1538 56.469 31.0556 56.9356 30.8636C57.4022 30.6716 57.8264 30.3896 58.184 30.0337C58.5417 29.6777 58.8257 29.2548 59.0198 28.7891C59.214 28.3234 59.3146 27.8241 59.3158 27.3195C59.317 26.8149 59.2188 26.3151 59.0268 25.8485C58.8348 25.3819 58.5528 24.9577 58.1968 24.6001L50.5936 16.9905C49.8736 16.2713 48.8976 15.8674 47.88 15.8674C46.8624 15.8674 45.8864 16.2713 45.1664 16.9905L40.2832 21.8737L35.4 16.9905C34.68 16.2713 33.704 15.8674 32.6864 15.8674C31.6688 15.8674 30.6928 16.2713 29.9728 16.9905L25.0896 21.8737L20.2 16.9905C19.48 16.2713 18.504 15.8674 17.4864 15.8674C16.4688 15.8674 15.4928 16.2713 14.7728 16.9905L7.16324 24.6001C6.8017 24.9554 6.51408 25.3787 6.31697 25.8457C6.11986 26.3127 6.01717 26.8141 6.01481 27.321C6.01245 27.8279 6.11048 28.3303 6.30324 28.7991C6.49599 29.2679 6.77966 29.6939 7.13788 30.0526C7.4961 30.4112 7.92179 30.6954 8.39038 30.8887C8.85897 31.082 9.3612 31.1806 9.8681 31.1789C10.375 31.1771 10.8765 31.075 11.3438 30.8785C11.811 30.6819 12.2347 30.3948 12.5904 30.0337L12.5968 30.0209Z" fill="#3F72AF"/>
</svg>
