<svg width="64" height="64" viewBox="0 0 64 64" fill="none" xmlns="http://www.w3.org/2000/svg">
<rect width="64" height="64" rx="8" fill="#DBE2EF"/>
<path d="M11.0912 29.7857C12.1097 29.7857 13.0864 29.3811 13.8065 28.6609C14.5267 27.9408 14.9312 26.9641 14.9312 25.9457C14.9043 25.0979 15.0479 24.2534 15.3537 23.4623C15.6595 22.6712 16.1212 21.9496 16.7113 21.3404C17.3014 20.7312 18.008 20.2469 18.789 19.9161C19.57 19.5853 20.4095 19.4148 21.2576 19.4148C22.1058 19.4148 22.9453 19.5853 23.7263 19.9161C24.5073 20.2469 25.2138 20.7312 25.8039 21.3404C26.394 21.9496 26.8557 22.6712 27.1615 23.4623C27.4673 24.2534 27.611 25.0979 27.584 25.9457V50.3361C27.584 51.3545 27.9886 52.3312 28.7087 53.0513C29.4289 53.7715 30.4056 54.1761 31.424 54.1761C32.4424 54.1761 33.4192 53.7715 34.1393 53.0513C34.8595 52.3312 35.264 51.3545 35.264 50.3361V25.9457C35.3163 24.3026 36.0057 22.7444 37.1864 21.6006C38.3672 20.4568 39.9466 19.8173 41.5904 19.8173C43.2343 19.8173 44.8137 20.4568 45.9944 21.6006C47.1751 22.7444 47.8646 24.3026 47.9168 25.9457C47.9168 26.9641 48.3214 27.9408 49.0415 28.6609C49.7617 29.3811 50.7384 29.7857 51.7568 29.7857C52.7753 29.7857 53.752 29.3811 54.4721 28.6609C55.1922 27.9408 55.5968 26.9641 55.5968 25.9457C55.5947 23.1442 54.752 20.4077 53.1777 18.0904C51.6034 15.7731 49.3699 13.9816 46.7662 12.9475C44.1625 11.9135 41.3085 11.6846 38.5733 12.2904C35.838 12.8962 33.3476 14.3089 31.424 16.3457C29.5005 14.3089 27.01 12.8962 24.2748 12.2904C21.5396 11.6846 18.6855 11.9135 16.0818 12.9475C13.4781 13.9816 11.2447 15.7731 9.67033 18.0904C8.09601 20.4077 7.2533 23.1442 7.25122 25.9457C7.25122 26.4499 7.35055 26.9493 7.54352 27.4152C7.7365 27.8811 8.01935 28.3044 8.37593 28.6609C8.73251 29.0175 9.15583 29.3004 9.62172 29.4934C10.0876 29.6863 10.5869 29.7857 11.0912 29.7857V29.7857Z" fill="#3F72AF"/>
</svg>
