<svg width="64" height="64" viewBox="0 0 64 64" fill="none" xmlns="http://www.w3.org/2000/svg">
<rect width="64" height="64" rx="8" fill="#DBE2EF"/>
<path d="M18.336 36.2432C20.4472 36.2461 22.5098 35.6096 24.2522 34.4174C25.9946 33.2252 27.3351 31.5333 28.0972 29.5644C28.8592 27.5955 29.0071 25.442 28.5214 23.3875C28.0357 21.3329 26.9391 19.4736 25.376 18.0544C29.2622 16.7315 33.4411 16.5231 37.4395 17.4529C41.438 18.3827 45.0963 20.4134 48 23.3152C48.7206 24.0357 49.6978 24.4405 50.7168 24.4405C51.7358 24.4405 52.7131 24.0357 53.4336 23.3152C54.1542 22.5946 54.559 21.6174 54.559 20.5984C54.559 19.5794 54.1542 18.6021 53.4336 17.8816C47.9282 12.3767 40.4767 9.2609 32.6914 9.2082C24.9061 9.1555 17.4131 12.1702 11.8336 17.6C10.1357 18.95 8.89965 20.7945 8.29657 22.8781C7.6935 24.9618 7.75328 27.1814 8.46764 29.2295C9.182 31.2777 10.5156 33.053 12.2837 34.3096C14.0518 35.5663 16.1669 36.242 18.336 36.2432V36.2432ZM18.336 22.9888C18.8867 22.9888 19.4249 23.1521 19.8827 23.458C20.3406 23.7639 20.6974 24.1987 20.9081 24.7074C21.1188 25.2161 21.174 25.7759 21.0665 26.3159C20.9591 26.856 20.694 27.352 20.3046 27.7414C19.9153 28.1307 19.4192 28.3959 18.8792 28.5033C18.3391 28.6107 17.7793 28.5556 17.2706 28.3449C16.7619 28.1341 16.3271 27.7773 16.0212 27.3195C15.7153 26.8617 15.552 26.3234 15.552 25.7728C15.5537 25.0349 15.8476 24.3278 16.3693 23.8061C16.891 23.2843 17.5982 22.9905 18.336 22.9888V22.9888Z" fill="#3F72AF"/>
<path d="M29.952 58.0032C37.6709 58.02 45.0875 55.0046 50.6048 49.6064C52.2838 48.2747 53.5138 46.4599 54.1285 44.4069C54.7433 42.354 54.7134 40.1619 54.0428 38.1265C53.3721 36.0911 52.0931 34.3106 50.3784 33.0252C48.6636 31.7398 46.5958 31.0116 44.454 30.9388C42.3122 30.866 40.1997 31.4521 38.4016 32.6181C36.6036 33.784 35.2066 35.4736 34.3992 37.4587C33.5919 39.4439 33.4132 41.6289 33.8872 43.7188C34.3611 45.8088 35.465 47.703 37.0496 49.1456C33.1641 50.4693 28.9855 50.6787 24.9871 49.7501C20.9887 48.8214 17.3301 46.7919 14.4256 43.8912C13.7051 43.1707 12.7278 42.7659 11.7088 42.7659C10.6898 42.7659 9.71258 43.1707 8.99203 43.8912C8.27149 44.6118 7.8667 45.589 7.8667 46.608C7.8667 47.627 8.27149 48.6043 8.99203 49.3248C11.7382 52.0857 15.0047 54.2743 18.6026 55.764C22.2004 57.2536 26.058 58.0147 29.952 58.0032V58.0032ZM44.096 38.6432C44.6467 38.6432 45.1849 38.8065 45.6427 39.1124C46.1006 39.4183 46.4574 39.8531 46.6681 40.3618C46.8788 40.8705 46.934 41.4303 46.8265 41.9704C46.7191 42.5104 46.454 43.0065 46.0646 43.3958C45.6753 43.7852 45.1792 44.0503 44.6392 44.1577C44.0991 44.2651 43.5394 44.21 43.0306 43.9993C42.5219 43.7886 42.0871 43.4318 41.7812 42.9739C41.4753 42.5161 41.312 41.9778 41.312 41.4272C41.3137 40.6894 41.6076 39.9822 42.1293 39.4605C42.6511 38.9388 43.3582 38.6449 44.096 38.6432V38.6432Z" fill="#3F72AF"/>
</svg>
