<svg width="64" height="64" viewBox="0 0 64 64" fill="none" xmlns="http://www.w3.org/2000/svg">
<rect width="64" height="64" rx="8" fill="#DBE2EF"/>
<path d="M18.36 47.1345C21.1507 47.0873 23.8092 45.9372 25.7545 43.9356C27.6997 41.934 28.7734 39.2438 28.7408 36.4529C28.7408 36.4209 28.7408 36.3825 28.7408 36.3505C28.7408 36.3185 28.7408 36.2865 28.7408 36.2481V21.8417C28.7044 20.864 29.056 19.9116 29.719 19.1923C30.3821 18.4729 31.3027 18.0449 32.28 18.0017C33.2574 18.0449 34.178 18.4729 34.841 19.1923C35.504 19.9116 35.8557 20.864 35.8192 21.8417V42.0081C35.7835 43.5035 36.0472 44.991 36.5948 46.383C37.1424 47.7751 37.9628 49.0436 39.0079 50.1139C40.0529 51.1842 41.3014 52.0347 42.68 52.6154C44.0586 53.1961 45.5393 53.4952 47.0352 53.4952C48.5311 53.4952 50.0119 53.1961 51.3904 52.6154C52.769 52.0347 54.0175 51.1842 55.0626 50.1139C56.1076 49.0436 56.928 47.7751 57.4756 46.383C58.0232 44.991 58.2869 43.5035 58.2512 42.0081C58.2512 40.9896 57.8466 40.0129 57.1265 39.2928C56.4064 38.5726 55.4296 38.1681 54.4112 38.1681C53.3928 38.1681 52.4161 38.5726 51.6959 39.2928C50.9758 40.0129 50.5712 40.9896 50.5712 42.0081C50.6071 42.4943 50.5422 42.9828 50.3808 43.4428C50.2193 43.9029 49.9647 44.3247 49.6329 44.682C49.301 45.0392 48.8991 45.3241 48.4521 45.519C48.0051 45.7138 47.5228 45.8144 47.0352 45.8144C46.5476 45.8144 46.0653 45.7138 45.6183 45.519C45.1714 45.3241 44.7694 45.0392 44.4376 44.682C44.1057 44.3247 43.8511 43.9029 43.6896 43.4428C43.5282 42.9828 43.4634 42.4943 43.4992 42.0081V21.8417C43.5351 18.8274 42.3742 15.922 40.271 13.7624C38.1679 11.6029 35.2942 10.3655 32.28 10.3217C29.2659 10.3655 26.3921 11.6029 24.289 13.7624C22.1858 15.922 21.0249 18.8274 21.0608 21.8417V26.1553C20.1738 25.9034 19.2565 25.7742 18.3344 25.7713C15.5655 25.8671 12.942 27.0345 11.017 29.0272C9.09212 31.0199 8.01624 33.6823 8.01624 36.4529C8.01624 39.2235 9.09212 41.8858 11.017 43.8785C12.942 45.8712 15.5655 47.0386 18.3344 47.1345H18.36ZM18.36 33.4513C19.1083 33.5204 19.8037 33.8666 20.31 34.4218C20.8163 34.9771 21.0969 35.7014 21.0969 36.4529C21.0969 37.2043 20.8163 37.9286 20.31 38.4839C19.8037 39.0391 19.1083 39.3853 18.36 39.4545C17.6118 39.3853 16.9164 39.0391 16.4101 38.4839C15.9038 37.9286 15.6231 37.2043 15.6231 36.4529C15.6231 35.7014 15.9038 34.9771 16.4101 34.4218C16.9164 33.8666 17.6118 33.5204 18.36 33.4513V33.4513Z" fill="#3F72AF"/>
</svg>
