<svg width="64" height="65" viewBox="0 0 64 65" fill="none" xmlns="http://www.w3.org/2000/svg">
<rect y="1" width="64" height="64" rx="8" fill="#DBE2EF"/>
<path d="M14.4112 54.4897H50.36C51.3784 54.4897 52.3551 54.0851 53.0752 53.365C53.7954 52.6448 54.2 51.6681 54.2 50.6497C54.2 49.6313 53.7954 48.6545 53.0752 47.9344C52.3551 47.2143 51.3784 46.8097 50.36 46.8097H14.4112C13.3927 46.8097 12.416 47.2143 11.6959 47.9344C10.9757 48.6545 10.5712 49.6313 10.5712 50.6497C10.5712 51.6681 10.9757 52.6448 11.6959 53.365C12.416 54.0851 13.3927 54.4897 14.4112 54.4897V54.4897Z" fill="#3F72AF"/>
<path d="M14.4112 41.3568H23.0448C23.8038 41.3562 24.5455 41.1306 25.1764 40.7086C25.8073 40.2866 26.2989 39.6871 26.5893 38.9859C26.8796 38.2846 26.9557 37.5131 26.8078 36.7686C26.6599 36.0242 26.2947 35.3403 25.7584 34.8032C24.4476 33.493 23.5549 31.8235 23.1931 30.0059C22.8312 28.1883 23.0166 26.3042 23.7256 24.5919C24.4347 22.8796 25.6356 21.4161 27.1765 20.3863C28.7174 19.3566 30.5291 18.807 32.3824 18.807C34.2357 18.807 36.0473 19.3566 37.5882 20.3863C39.1291 21.4161 40.33 22.8796 41.0391 24.5919C41.7482 26.3042 41.9335 28.1883 41.5717 30.0059C41.2098 31.8235 40.3171 33.493 39.0064 34.8032C38.47 35.3403 38.1048 36.0242 37.9569 36.7686C37.8091 37.5131 37.8851 38.2846 38.1755 38.9859C38.4658 39.6871 38.9575 40.2866 39.5883 40.7086C40.2192 41.1306 40.961 41.3562 41.72 41.3568H50.36C51.3784 41.3568 52.3551 40.9523 53.0752 40.2321C53.7954 39.512 54.2 38.5353 54.2 37.5168C54.2 36.4984 53.7954 35.5217 53.0752 34.8016C52.3551 34.0814 51.3784 33.6768 50.36 33.6768H48.5168C49.3898 31.1117 49.6386 28.3755 49.2426 25.695C48.8466 23.0145 47.8172 20.467 46.2398 18.264C44.6624 16.0609 42.5824 14.2656 40.1725 13.0271C37.7625 11.7886 35.0919 11.1426 32.3824 11.1426C29.6728 11.1426 27.0023 11.7886 24.5923 13.0271C22.1823 14.2656 20.1024 16.0609 18.5249 18.264C16.9475 20.467 15.9182 23.0145 15.5222 25.695C15.1262 28.3755 15.375 31.1117 16.248 33.6768H14.4112C13.3927 33.6768 12.416 34.0814 11.6959 34.8016C10.9757 35.5217 10.5712 36.4984 10.5712 37.5168C10.5712 38.5353 10.9757 39.512 11.6959 40.2321C12.416 40.9523 13.3927 41.3568 14.4112 41.3568V41.3568Z" fill="#3F72AF"/>
</svg>
