<svg width="64" height="64" viewBox="0 0 64 64" fill="none" xmlns="http://www.w3.org/2000/svg">
<rect width="64" height="64" rx="8" fill="#DBE2EF"/>
<path d="M16.7696 36.44H20.4624C19.7567 39.47 18.2157 42.2415 16.0144 44.44C15.6528 44.7953 15.3652 45.2186 15.1681 45.6856C14.971 46.1526 14.8683 46.654 14.8659 47.1609C14.8636 47.6678 14.9616 48.1702 15.1544 48.639C15.3471 49.1078 15.6308 49.5338 15.989 49.8925C16.3472 50.2511 16.7729 50.5353 17.2415 50.7286C17.7101 50.9219 18.2123 51.0205 18.7192 51.0188C19.2261 51.017 19.7277 50.9149 20.1949 50.7184C20.6621 50.5218 21.0858 50.2347 21.4416 49.8736C25.0872 46.2323 27.479 41.525 28.2704 36.4336H36.4304C37.2203 41.5158 39.605 46.2156 43.24 49.8544C43.958 50.5774 44.9338 50.9857 45.9528 50.9893C46.9718 50.9929 47.9505 50.5916 48.6736 49.8736C49.3967 49.1556 49.8049 48.1797 49.8085 47.1607C49.8121 46.1417 49.4108 45.163 48.6928 44.44C46.4914 42.2415 44.9504 39.47 44.2448 36.44H47.9376C48.956 36.44 49.9327 36.0354 50.6529 35.3152C51.373 34.5951 51.7776 33.6184 51.7776 32.6C51.7776 31.5815 51.373 30.6048 50.6529 29.8847C49.9327 29.1645 48.956 28.76 47.9376 28.76H44.2448C44.9504 25.7299 46.4914 22.9584 48.6928 20.76C49.4108 20.0369 49.8121 19.0582 49.8085 18.0392C49.8049 17.0202 49.3967 16.0444 48.6736 15.3264C47.9505 14.6084 46.9718 14.207 45.9528 14.2106C44.9338 14.2142 43.958 14.6225 43.24 15.3456C39.5943 18.9868 37.2026 23.6941 36.4112 28.7856H28.2768C27.4942 23.698 25.1139 18.9911 21.48 15.3456C20.762 14.6208 19.7855 14.2109 18.7653 14.2061C17.7451 14.2013 16.7647 14.602 16.04 15.32C15.3152 16.038 14.9053 17.0145 14.9005 18.0347C14.8957 19.0549 15.2964 20.0352 16.0144 20.76C18.2157 22.9584 19.7567 25.7299 20.4624 28.76H16.7696C15.7511 28.76 14.7744 29.1645 14.0543 29.8847C13.3341 30.6048 12.9296 31.5815 12.9296 32.6C12.9296 33.6184 13.3341 34.5951 14.0543 35.3152C14.7744 36.0354 15.7511 36.44 16.7696 36.44V36.44Z" fill="#3F72AF"/>
</svg>
