<svg width="64" height="64" viewBox="0 0 64 64" fill="none" xmlns="http://www.w3.org/2000/svg">
<rect width="64" height="64" rx="8" fill="#DBE2EF"/>
<path d="M15.0784 41.4976L10.4192 46.1568C9.69864 46.8773 9.29384 47.8546 9.29384 48.8736C9.29384 49.8926 9.69864 50.8699 10.4192 51.5904C11.1397 52.3109 12.117 52.7157 13.136 52.7157C14.155 52.7157 15.1322 52.3109 15.8528 51.5904L20.48 46.9248L25.8368 52.2816C26.5573 53.0021 27.5346 53.4069 28.5536 53.4069C29.5726 53.4069 30.5498 53.0021 31.2704 52.2816C31.9909 51.5611 32.3957 50.5838 32.3957 49.5648C32.3957 48.5458 31.9909 47.5685 31.2704 46.848L25.9136 41.4912L43.3152 24.1216L41.4336 33.0816C41.2206 34.078 41.4121 35.1181 41.966 35.9733C42.5199 36.8285 43.3908 37.4286 44.3872 37.6416C45.3835 37.8546 46.4237 37.6631 47.2789 37.1092C48.1341 36.5553 48.7342 35.6844 48.9472 34.688L53.472 13.0816C53.472 13.0816 53.472 13.0176 53.472 12.9856C53.5053 12.7974 53.5246 12.607 53.5296 12.416C53.5296 12.3648 53.5296 12.32 53.5296 12.2688C53.5262 12.054 53.5048 11.84 53.4656 11.6288C53.4656 11.5904 53.4656 11.5456 53.4656 11.5072C53.4254 11.3243 53.3719 11.1447 53.3056 10.9696L53.2544 10.8352C53.1702 10.6372 53.0696 10.4467 52.9536 10.2656L52.864 10.1376C52.6099 9.75391 52.2813 9.42525 51.8976 9.1712L51.7632 9.0816C51.5839 8.96807 51.3955 8.8696 51.2 8.7872L51.0592 8.736C50.8902 8.67268 50.717 8.62135 50.5408 8.5824L50.4 8.5504C50.1886 8.51335 49.9745 8.49408 49.76 8.4928H49.6C49.4089 8.4978 49.2185 8.51705 49.0304 8.5504H48.9344L27.3216 13.056C26.8278 13.1594 26.3592 13.359 25.9426 13.6435C25.526 13.9279 25.1695 14.2917 24.8934 14.7139C24.3359 15.5667 24.14 16.606 24.3488 17.6032C24.5576 18.6004 25.1539 19.4738 26.0067 20.0314C26.8595 20.5889 27.8988 20.7848 28.896 20.576L37.856 18.6944L20.48 36.064L15.1488 30.72C14.4282 29.9995 13.451 29.5947 12.432 29.5947C11.413 29.5947 10.4357 29.9995 9.71518 30.72C8.99464 31.4405 8.58984 32.4178 8.58984 33.4368C8.58984 34.4558 8.99464 35.4331 9.71518 36.1536L15.0784 41.4976Z" fill="#3F72AF"/>
</svg>
