<svg width="64" height="64" viewBox="0 0 64 64" fill="none" xmlns="http://www.w3.org/2000/svg">
<rect width="64" height="64" rx="8" fill="#DBE2EF"/>
<path d="M55.04 33.472C54.6834 33.115 54.2599 32.8317 53.7937 32.6385C53.3275 32.4452 52.8279 32.3458 52.3232 32.3458C51.8186 32.3458 51.3189 32.4452 50.8527 32.6385C50.3866 32.8317 49.9631 33.115 49.6064 33.472L46.08 36.992C45.5677 37.5081 45.2124 38.1592 45.0556 38.8694C44.8988 39.5796 44.9469 40.3197 45.1943 41.0036C45.4417 41.6875 45.8783 42.2871 46.4532 42.7325C47.028 43.178 47.7176 43.4511 48.4416 43.52C48.3585 44.065 48.0739 44.559 47.6442 44.9043C47.2144 45.2496 46.6708 45.4211 46.1207 45.3849C45.5705 45.3487 45.054 45.1075 44.6732 44.7088C44.2924 44.3102 44.075 43.7832 44.064 43.232V19.0848C44.0634 17.3361 43.5768 15.622 42.6585 14.1339C41.7402 12.6457 40.4263 11.4421 38.8636 10.6574C37.3008 9.87272 35.5507 9.53784 33.8087 9.69016C32.0667 9.84247 30.4013 10.476 28.9984 11.52C27.3774 10.3098 25.4086 9.65595 23.3856 9.65595C21.3627 9.65595 19.3939 10.3098 17.7728 11.52C16.37 10.4778 14.7052 9.84584 12.9642 9.6945C11.2231 9.54316 9.47427 9.87842 7.91263 10.6629C6.35099 11.4474 5.03796 12.6502 4.11996 14.1373C3.20196 15.6243 2.71508 17.3372 2.71362 19.0848C2.71362 20.1032 3.11819 21.0799 3.83833 21.8001C4.55847 22.5202 5.53519 22.9248 6.55362 22.9248C7.57205 22.9248 8.54877 22.5202 9.26891 21.8001C9.98905 21.0799 10.3936 20.1032 10.3936 19.0848C10.3936 18.6146 10.5804 18.1637 10.9129 17.8312C11.2453 17.4988 11.6962 17.312 12.1664 17.312C12.6366 17.312 13.0875 17.4988 13.42 17.8312C13.7524 18.1637 13.9392 18.6146 13.9392 19.0848V34.7456C13.9392 35.764 14.3438 36.7407 15.0639 37.4609C15.7841 38.181 16.7608 38.5856 17.7792 38.5856C18.7977 38.5856 19.7744 38.181 20.4945 37.4609C21.2147 36.7407 21.6192 35.764 21.6192 34.7456V19.0848C21.6192 18.6146 21.806 18.1637 22.1385 17.8312C22.4709 17.4988 22.9218 17.312 23.392 17.312C23.8622 17.312 24.3131 17.4988 24.6456 17.8312C24.978 18.1637 25.1648 18.6146 25.1648 19.0848V34.7456C25.1648 35.764 25.5694 36.7407 26.2895 37.4609C27.0097 38.181 27.9864 38.5856 29.0048 38.5856C30.0233 38.5856 31 38.181 31.7201 37.4609C32.4403 36.7407 32.8448 35.764 32.8448 34.7456V19.0848C32.8448 18.6146 33.0316 18.1637 33.3641 17.8312C33.6965 17.4988 34.1474 17.312 34.6176 17.312C35.0878 17.312 35.5387 17.4988 35.8712 17.8312C36.2036 18.1637 36.3904 18.6146 36.3904 19.0848V43.2256C36.3839 43.3556 36.3839 43.4859 36.3904 43.616C36.4673 46.1912 37.5476 48.6343 39.4006 50.4242C41.2537 52.2141 43.7329 53.2088 46.3092 53.1963C48.8855 53.1838 51.355 52.1649 53.1905 50.3571C55.0261 48.5494 56.0826 46.0958 56.1344 43.52C56.8622 43.4586 57.5574 43.191 58.1384 42.7485C58.7195 42.306 59.1623 41.707 59.4149 41.0217C59.6675 40.3364 59.7194 39.5933 59.5646 38.8796C59.4098 38.1658 59.0547 37.511 58.5408 36.992L55.04 33.472Z" fill="#3F72AF"/>
</svg>
