<svg width="64" height="64" viewBox="0 0 64 64" fill="none" xmlns="http://www.w3.org/2000/svg">
<rect width="64" height="64" rx="8" fill="#DBE2EF"/>
<path d="M16.1025 38.816C16.097 41.4639 16.7576 44.0706 18.0234 46.3963C19.2892 48.7221 21.1197 50.6921 23.3463 52.1252C25.5729 53.5582 28.1241 54.4083 30.7653 54.5971C33.4064 54.7859 36.0527 54.3075 38.4605 53.2057C40.8683 52.104 42.9604 50.4144 44.5442 48.2925C46.128 46.1705 47.1527 43.6842 47.524 41.0625C47.8953 38.4407 47.6013 35.7677 46.669 33.2894C45.7367 30.811 44.1961 28.607 42.1889 26.88C43.9099 25.401 45.291 23.5676 46.2376 21.5052C47.1843 19.4429 47.6741 17.2004 47.6737 14.9312C47.6737 13.9128 47.2691 12.936 46.5489 12.2159C45.8288 11.4958 44.8521 11.0912 43.8337 11.0912C42.8152 11.0912 41.8385 11.4958 41.1184 12.2159C40.3982 12.936 39.9937 13.9128 39.9937 14.9312C39.9343 17.0415 39.0544 19.0455 37.5407 20.5172C36.0271 21.9889 33.9992 22.8122 31.8881 22.8122C29.7769 22.8122 27.749 21.9889 26.2354 20.5172C24.7217 19.0455 23.8418 17.0415 23.7825 14.9312C23.7825 13.9128 23.3779 12.936 22.6577 12.2159C21.9376 11.4958 20.9609 11.0912 19.9425 11.0912C18.924 11.0912 17.9473 11.4958 17.2272 12.2159C16.507 12.936 16.1025 13.9128 16.1025 14.9312C16.102 17.2004 16.5918 19.4429 17.5385 21.5052C18.4851 23.5676 19.8662 25.401 21.5873 26.88C19.8679 28.3576 18.4877 30.1889 17.5411 32.2489C16.5945 34.3089 16.1038 36.5489 16.1025 38.816V38.816ZM31.8913 30.72C33.4956 30.72 35.0638 31.1959 36.3976 32.0875C37.7313 32.979 38.7707 34.2462 39.384 35.7286C39.9974 37.2111 40.1572 38.8421 39.8433 40.4154C39.5294 41.9888 38.7558 43.4336 37.6205 44.5671C36.4852 45.7006 35.0391 46.4719 33.4653 46.7833C31.8915 47.0948 30.2607 46.9324 28.7793 46.3167C27.2978 45.701 26.0323 44.6596 25.1428 43.3245C24.2533 41.9893 23.7799 40.4203 23.7825 38.816C23.7875 36.6681 24.6439 34.6099 26.1639 33.0923C27.6838 31.5748 29.7434 30.7217 31.8913 30.72V30.72Z" fill="#3F72AF"/>
</svg>
