<svg width="64" height="64" viewBox="0 0 64 64" fill="none" xmlns="http://www.w3.org/2000/svg">
<rect width="64" height="64" rx="8" fill="#DBE2EF"/>
<path d="M46.7776 19.5328C46.384 17.9558 45.6036 16.5017 44.5069 15.3021C43.4102 14.1024 42.0317 13.1951 40.4962 12.6621C38.9607 12.129 37.3165 11.9872 35.7124 12.2493C34.1083 12.5114 32.5948 13.1692 31.3088 14.1632C29.601 12.8393 27.5016 12.1208 25.3408 12.1208C23.18 12.1208 21.0805 12.8393 19.3728 14.1632C17.9228 13.0457 16.1887 12.357 14.3671 12.1753C12.5456 11.9936 10.7096 12.3261 9.06744 13.1352C7.42533 13.9442 6.0429 15.1974 5.07704 16.7525C4.11118 18.3075 3.60057 20.1022 3.60316 21.9328C3.60316 22.4371 3.70248 22.9364 3.89546 23.4023C4.08844 23.8682 4.37129 24.2915 4.72787 24.6481C5.08445 25.0047 5.50776 25.2875 5.97365 25.4805C6.43954 25.6735 6.93888 25.7728 7.44316 25.7728C7.94744 25.7728 8.44677 25.6735 8.91266 25.4805C9.37855 25.2875 9.80187 25.0047 10.1584 24.6481C10.515 24.2915 10.7979 23.8682 10.9909 23.4023C11.1838 22.9364 11.2832 22.4371 11.2832 21.9328C11.2832 21.3684 11.5074 20.8272 11.9064 20.4281C12.3055 20.029 12.8468 19.8048 13.4112 19.8048C13.9755 19.8048 14.5168 20.029 14.9159 20.4281C15.315 20.8272 15.5392 21.3684 15.5392 21.9328V38.5728C15.5392 39.5912 15.9437 40.568 16.6639 41.2881C17.384 42.0082 18.3607 42.4128 19.3792 42.4128C20.3976 42.4128 21.3743 42.0082 22.0944 41.2881C22.8146 40.568 23.2192 39.5912 23.2192 38.5728V21.9328C23.2192 21.3684 23.4434 20.8272 23.8424 20.4281C24.2415 20.029 24.7828 19.8048 25.3472 19.8048C25.9115 19.8048 26.4528 20.029 26.8519 20.4281C27.251 20.8272 27.4752 21.3684 27.4752 21.9328V38.5728C27.4752 39.5912 27.8797 40.568 28.5999 41.2881C29.32 42.0082 30.2967 42.4128 31.3152 42.4128C32.3336 42.4128 33.3103 42.0082 34.0304 41.2881C34.7506 40.568 35.1552 39.5912 35.1552 38.5728V21.9328C35.1552 21.3684 35.3794 20.8272 35.7784 20.4281C36.1775 20.029 36.7188 19.8048 37.2832 19.8048C37.8475 19.8048 38.3888 20.029 38.7879 20.4281C39.187 20.8272 39.4112 21.3684 39.4112 21.9328V25.28C39.4112 25.3504 39.4112 25.4208 39.4112 25.4912V44.5888L33.28 50.6944C32.9184 51.0497 32.6308 51.4731 32.4337 51.9401C32.2366 52.4071 32.1339 52.9085 32.1315 53.4154C32.1292 53.9223 32.2272 54.4246 32.42 54.8935C32.6127 55.3623 32.8964 55.7883 33.2546 56.1469C33.6128 56.5056 34.0385 56.7897 34.5071 56.9831C34.9757 57.1764 35.4779 57.275 35.9848 57.2732C36.4917 57.2715 36.9933 57.1694 37.4605 56.9728C37.9277 56.7762 38.3514 56.4891 38.7072 56.128L41.3824 53.4528C42.6083 55.0477 44.3026 56.219 46.2277 56.8026C48.1528 57.3862 50.2123 57.3529 52.1175 56.7072C54.0227 56.0616 55.6782 54.836 56.8518 53.2022C58.0255 51.5685 58.6586 49.6084 58.6624 47.5968C58.6624 46.5784 58.2578 45.6016 57.5377 44.8815C56.8175 44.1614 55.8408 43.7568 54.8224 43.7568C53.8039 43.7568 52.8272 44.1614 52.1071 44.8815C51.3869 45.6016 50.9824 46.5784 50.9824 47.5968C50.9667 48.0953 50.7626 48.5693 50.4113 48.9233C50.06 49.2774 49.5875 49.485 49.0891 49.5045C48.5908 49.524 48.1035 49.3538 47.7256 49.0283C47.3478 48.7028 47.1073 48.2462 47.0528 47.7504L56.3584 38.5024C58.0296 36.8371 59.1312 34.6858 59.5055 32.3564C59.8799 30.027 59.5078 27.6388 58.4424 25.5338C57.3771 23.4287 55.6732 21.7145 53.5745 20.6366C51.4758 19.5588 49.09 19.1724 46.7584 19.5328H46.7776ZM50.9248 33.0688L47.0848 36.9088V27.3408C47.836 27.0258 48.6733 26.9816 49.4536 27.2157C50.2338 27.4499 50.9084 27.9479 51.362 28.6245C51.8156 29.3011 52.02 30.1144 51.9403 30.9251C51.8605 31.7358 51.5015 32.4935 50.9248 33.0688V33.0688Z" fill="#3F72AF"/>
</svg>
